<?xml version="1.0" encoding="UTF-8"?><svg id="Capa_2" xmlns="http://www.w3.org/2000/svg" viewBox="0 0 169.77 353.79"><g id="Capa_1-2"><path d="M0,353.79v-9.67c5.23,0,10.53,.52,15.69-.11,11.35-1.36,22.63-3.34,33.94-4.99,4.48-.66,6.03-2.68,6.02-7.59-.19-81.68-.22-163.37,.04-245.05,.03-8.89,1.37-17.92,3.28-26.63,3.81-17.39,15.51-29.39,29.22-39.66C109.45,4.18,143.46-1.13,169.77,.19V8.58c-4.95,.26-10.06,.19-15.06,.86-10.68,1.43-21.29,3.36-31.96,4.86-5.03,.71-6.52,3.04-6.5,8.22,.19,78.69,.34,157.38-.1,236.07-.07,11.97-1.93,24.27-5.1,35.82-6.1,22.24-20.8,37.79-41.76,47.4-21.85,10.01-45.1,11.73-69.29,11.98ZM104.56,22.22c-4.61,1.42-6.31,3.48-6.25,7.79,.36,27.94,.53,55.89,.58,83.83,.08,47.25,.02,94.5,.02,141.75v37.03c.65-2,1.32-3.31,1.48-4.68,1.44-13.01,3.92-26.03,3.99-39.05,.39-73.54,.19-147.07,.19-220.61v-6.05Z"/></g></svg>